<?xml version="1.0" encoding="utf-8"?>
<!-- Generator: Adobe Illustrator 24.0.3, SVG Export Plug-In . SVG Version: 6.00 Build 0)  -->
<svg version="1.1" id="Calque_1" xmlns="http://www.w3.org/2000/svg" xmlns:xlink="http://www.w3.org/1999/xlink" x="0px" y="0px"
	  style="enable-background:new 0 0 433 464.89;"  xml:space="preserve">
<g>
	<path class="st0" d="M172.23,262.48c-6.68,1.35-12.46,2.52-18.67,3.78c0.24-1.4,0.33-2.35,0.57-3.25c20.3-76.97,40.61-153.94,60.9-230.92
		c0.53-2.03,1.05-3.51,3.5-4.01c26.87-5.46,53.72-11.06,80.57-16.61c0.58-0.12,1.17-0.16,2.51-0.34
		c-7.56,28.72-15.01,57.04-22.69,86.21c44.6-9.23,88.56-18.32,133.28-27.58c-13.33,50.55-26.48,100.46-39.83,151.09
		c6.46-1.29,12.43-2.47,18.97-3.78c-1.35,5.23-2.53,9.88-3.75,14.53c-11.64,44.09-23.32,88.16-34.86,132.28
		c-0.84,3.21-2.13,4.62-5.38,5.27c-25.92,5.21-51.8,10.65-77.69,16.01c-1.05,0.22-2.11,0.35-3.86,0.63
		c13.29-50.4,26.46-100.37,39.79-150.92c-6.55,1.33-12.43,2.51-19.02,3.85c5.73-21.73,11.29-42.83,16.94-64.29
		c-0.97,0-1.66-0.11-2.3,0.02c-14.02,2.88-28.06,5.74-42.05,8.78c-1.35,0.29-3.22,1.61-3.55,2.83
		c-5.49,20.19-10.78,40.44-16.1,60.69c-0.09,0.34-0.01,0.73-0.01,1.66c5.97-1.21,11.84-2.39,18.05-3.65
		c-0.11,1.12-0.08,1.96-0.28,2.73c-12.78,48.55-25.56,97.11-38.46,145.63c-0.33,1.24-1.75,2.83-2.9,3.07
		c-27.05,5.74-54.14,11.33-81.23,16.92c-0.56,0.11-1.15,0.01-2.16,0.01C145.75,362.94,158.9,313.05,172.23,262.48z"/>
	<path class="st1" d="M140.14,289.3c-0.33,1.6-0.5,2.67-0.77,3.71c-10.8,40.95-21.62,81.9-32.36,122.87c-0.58,2.2-1.47,3.34-3.71,3.79
		c-26.74,5.47-53.46,11.02-80.19,16.54c-0.69,0.14-1.41,0.15-2.69,0.28c11.39-43.14,22.68-85.92,34.16-129.41
		c-6.5,1.27-12.46,2.44-18.96,3.71c1.91-7.34,3.64-14.05,5.41-20.75c11.13-42.16,22.3-84.31,33.33-126.5c0.78-2.98,2.09-4.17,5-4.76
		c26.04-5.27,52.05-10.72,78.06-16.11c1.03-0.21,2.07-0.36,3.73-0.65c-13.29,50.44-26.43,100.36-39.76,150.96
		C127.81,291.73,133.76,290.56,140.14,289.3z"/>
	<path class="st2" d="M115.83,75.7c10.82-5.47,14.85-16,19.52-25.86c1.63-3.44,3.39-4.96,6.88-3.43c4.55,2,7.81-1.16,11.43-2.89
		c1.07-0.51,2.12-1.04,4-1.97c0,5.81,0.22,10.9-0.08,15.95c-0.21,3.53,1.05,5.33,4.28,6.09c1.1,0.26,2.11,0.92,4.08,1.82
		c-3.77,0.81-6.6,1.31-9.36,2.09c-1,0.28-2.25,1.03-2.65,1.92c-1.37,3-2.4,6.16-3.75,9.76c4.98-2.1,9.88-4.17,14.77-6.23
		c0.17,0.14,0.34,0.29,0.51,0.43c-4.61,6.17-9.21,12.34-14.13,18.92c2.86,0.32,5.32,0.51,7.76,0.87
		c10.63,1.56,13.92,7.46,11.54,18.23c-1.43,6.47-4.4,8.75-10.68,9.87c-24.21,4.34-48.29,9.47-72.42,14.3
		c-1.53,0.31-3.07,0.52-4.64,0.78c0.99-14.47,6.88-26.32,33.16-37.03c-1.75-5.09-3.5-10.2-5.45-15.87
		c5.08,0.31,9.79,0.59,14.39,0.87c0.22-3.58,0.42-6.84,0.63-10.39C122.37,74.53,119.1,75.12,115.83,75.7z"/>
</g>
</svg>